<svg width="14" height="14" viewBox="0 0 14 14" fill="none" xmlns="http://www.w3.org/2000/svg">
<path d="M2.94918 5.39733L8.00822 6.07882L8.62794 10.988L12.3716 1.62836L2.94918 5.39733ZM0.907742 6.14362C0.796728 6.12895 0.69371 6.07789 0.614809 5.99843C0.535907 5.91897 0.485573 5.8156 0.471684 5.70448C0.457795 5.59337 0.481133 5.48078 0.538048 5.38434C0.594962 5.28791 0.682242 5.21306 0.786228 5.17151L13.0926 0.250186C13.1846 0.213357 13.2854 0.204341 13.3825 0.224256C13.4796 0.244172 13.5687 0.292143 13.6387 0.362223C13.7088 0.432303 13.7568 0.521409 13.7767 0.618495C13.7966 0.715581 13.7876 0.816378 13.7508 0.908388L8.84059 13.1813C8.7989 13.2853 8.72388 13.3726 8.62728 13.4294C8.53068 13.4862 8.41796 13.5094 8.30679 13.4952C8.19562 13.4811 8.09228 13.4305 8.01296 13.3513C7.93364 13.2722 7.88283 13.1689 7.86848 13.0578L7.10092 6.97802L0.907742 6.14362V6.14362Z" fill="#148F00"/>
</svg>
