<svg width="97" height="81" viewBox="0 0 97 81" fill="none" xmlns="http://www.w3.org/2000/svg">
<path d="M12.7037 73.7946C13.5505 74.6937 14.3939 75.5894 15.2196 76.5631C16.4175 77.9757 18.1317 78.9002 19.9838 78.9002H30.0017C33.3991 78.9002 36.0193 75.9314 35.6606 72.5529C35.5128 71.161 35.4015 69.9807 35.3796 69.4027C35.3067 67.376 32.5871 63.6822 32.5871 63.6822L24.2383 53.1583C24.2383 53.1583 21.8756 50.6628 20.5237 47.8963C19.1691 45.1273 16.2933 48.6101 15.9129 51.1004C15.5274 53.5907 16.2568 54.9036 16.2568 54.9036L21.0238 64.3804C21.0238 64.3804 15.4961 56.8078 13.7795 53.7653C12.9095 52.2231 12.6672 48.9566 12.3937 45.307C12.1306 41.7513 11.8388 37.8309 10.9141 34.7831C9.03852 28.6094 3.61505 30.1542 2.67467 32.9154C1.7369 35.674 1.9479 53.9059 2.28914 56.9459C2.55745 59.3268 3.99277 61.6556 5.61043 64.2814C6.05848 65.0107 6.52216 65.761 6.97802 66.5398C8.79105 69.6449 10.7552 71.7315 12.7037 73.7946ZM77.7989 78.9002C79.6511 78.9002 81.3652 77.9757 82.5631 76.5631C83.3889 75.5894 84.2323 74.6937 85.0791 73.7946C87.0276 71.7315 88.9917 69.6449 90.8073 66.5398C91.2606 65.7584 91.7243 65.0107 92.1723 64.284C93.79 61.6582 95.2253 59.3268 95.4936 56.9459C95.8349 53.9059 96.0485 35.674 95.1081 32.9154C94.1677 30.1542 88.7442 28.6094 86.8687 34.7857C85.9465 37.8335 85.6548 41.7513 85.3891 45.307C85.1156 48.9566 84.8733 52.2231 84.0033 53.7653C82.2866 56.8104 76.7563 64.3804 76.7563 64.3804L81.526 54.9036C81.526 54.9036 82.2553 53.5907 81.8724 51.1004C81.4895 48.6101 78.611 45.1273 77.2617 47.8963C75.9071 50.6628 73.5444 53.1583 73.5444 53.1583L65.1956 63.6822C65.1956 63.6822 62.4761 67.376 62.4032 69.4027C62.3823 69.9807 62.2712 71.161 62.1233 72.5531C61.7643 75.9315 64.3836 78.9002 67.7811 78.9002H77.7989Z" fill="#FADCBC" stroke="#DBA689" stroke-width="2.26607"/>
<path d="M64.6458 0H64.5494C64.3132 0 64.0722 -2.38813e-07 63.836 0.00963975C61.3393 0.0530197 58.9148 0.607319 56.6253 1.5665C54.172 2.6028 52.4898 4.14519 50.3063 5.53335C49.8966 5.79363 49.3953 5.92377 48.8989 5.92377C48.3976 5.92377 47.8963 5.79363 47.4866 5.53335C45.308 4.14519 43.621 2.6028 41.1676 1.5665C38.8781 0.607319 36.4537 0.0530197 33.9569 0.00963975C33.7207 -2.38813e-07 33.4846 0 33.2484 0H33.152C26.8281 0 22.2154 3.63427 19.5114 9.95328C18.3546 12.6428 18.3353 16.6916 18.8077 19.5161C19.28 22.331 20.4513 24.8712 22.0467 27.2426C27.3632 35.1618 36.8489 38.8347 43.6885 45.2164C44.4163 45.896 45.1393 46.6334 45.8816 47.313C46.6721 48.0409 47.6264 49.7182 48.8989 49.7953C50.1665 49.7182 51.1257 48.0457 51.9162 47.313C52.6585 46.6286 53.3767 45.896 54.1093 45.2164C60.9489 38.8347 70.4298 35.1618 75.7462 27.2474C77.3417 24.876 78.5129 22.3358 78.9853 19.521C79.4576 16.6965 79.4384 12.6428 78.2816 9.9581C75.5775 3.63427 70.9696 0 64.6458 0Z" fill="#B1C937"/>
</svg>
