<svg width="80" height="80" viewBox="0 0 80 80" fill="none" xmlns="http://www.w3.org/2000/svg">
<path d="M39.8688 10.5688C0.925 10.5688 0 54.2251 0 62.8688C0 71.5126 17.85 78.5126 39.8688 78.5126C61.8938 78.5126 79.7375 71.5063 79.7375 62.8688C79.7375 54.2251 78.8187 10.5688 39.8688 10.5688Z" fill="#FCC21B"/>
<path d="M40.0002 64.6C32.6439 64.6 25.9377 61.1875 21.6127 55.2313C21.0064 54.3938 21.1877 53.2187 22.0252 52.6125C22.8627 52.0062 24.0377 52.1875 24.6439 53.025C28.2627 58 33.8564 60.85 40.0002 60.85C46.1439 60.85 51.7377 58 55.3502 53.025C55.4947 52.8255 55.6772 52.6566 55.8872 52.5278C56.0972 52.3991 56.3305 52.3131 56.5738 52.2748C56.8172 52.2364 57.0657 52.2465 57.3051 52.3045C57.5445 52.3625 57.7701 52.4671 57.9689 52.6125C58.8064 53.2187 58.9939 54.3938 58.3814 55.2313C54.0627 61.1875 47.3564 64.6 40.0002 64.6ZM19.9752 46.1312C19.742 46.5162 19.366 46.7934 18.9293 46.9023C18.4926 47.0111 18.0305 46.9429 17.6439 46.7125C17.2582 46.4834 16.9786 46.1111 16.8662 45.6767C16.7538 45.2424 16.8177 44.7812 17.0439 44.3937C17.1564 44.2 19.9189 39.6312 26.0252 39.6312C32.1377 39.6312 34.9002 44.2 35.0189 44.3937C35.1699 44.6533 35.2498 44.9481 35.2506 45.2484C35.2515 45.5487 35.1732 45.8439 35.0236 46.1043C34.8741 46.3647 34.6586 46.5812 34.3988 46.7318C34.1391 46.8825 33.8442 46.962 33.5439 46.9625C32.9689 46.9625 32.4002 46.6687 32.0814 46.1375C32.0002 46 30.1314 43.0375 26.0252 43.0375C21.9189 43.0312 20.0627 46 19.9752 46.1312ZM62.5002 46.7187C62.2314 46.8812 61.9314 46.9562 61.6439 46.9562C61.0564 46.9562 60.4877 46.65 60.1689 46.1187C60.1002 45.9937 58.2439 43.0312 54.1314 43.0312C49.9502 43.0312 48.0939 46.0875 48.0752 46.1187C47.8409 46.4979 47.4674 46.7701 47.0347 46.8769C46.602 46.9837 46.1447 46.9166 45.7609 46.6899C45.3772 46.4633 45.0976 46.0952 44.9823 45.6647C44.8669 45.2342 44.9249 44.7757 45.1439 44.3875C45.2564 44.1937 48.0189 39.625 54.1314 39.625C60.2377 39.625 62.9939 44.1937 63.1064 44.3875C63.5814 45.2 63.3064 46.25 62.5002 46.7187Z" fill="#2F2F2F"/>
<path d="M39.8748 0C20.3686 0 4.5498 5.875 4.5498 13.125C4.5498 20.3813 20.3686 26.25 39.8748 26.25C59.3811 26.25 75.1873 20.3813 75.1873 13.125C75.1873 5.875 59.3811 0 39.8748 0ZM39.8686 16.1625C28.8186 16.1625 19.8498 13.7812 19.8498 10.8438C19.8498 7.9125 28.8186 5.525 39.8686 5.525C50.9123 5.525 59.8686 7.9125 59.8686 10.8438C59.8686 13.7875 50.9123 16.1625 39.8686 16.1625Z" fill="#40C0E7"/>
</svg>
