<svg width="88" height="88" viewBox="0 0 88 88" fill="none" xmlns="http://www.w3.org/2000/svg">
<path d="M44 73.1225C64.6934 73.1225 81.4688 57.6399 81.4688 38.5412C81.4688 19.4425 64.6934 3.95996 44 3.95996C23.3066 3.95996 6.53125 19.4425 6.53125 38.5412C6.53125 57.6399 23.3066 73.1225 44 73.1225Z" fill="#312D2D"/>
<path d="M74.6833 47.9736C74.6833 47.9736 80.3896 48.9636 80.3896 55.1099C80.3896 60.5343 76.2233 62.6724 72.064 62.6724V47.9736H74.6833ZM13.3171 47.9736C13.3171 47.9736 7.61084 48.9636 7.61084 55.1099C7.61084 60.5343 11.7771 62.6724 15.9365 62.6724V47.9736H13.3171Z" fill="#DBA689"/>
<path d="M68.5986 64.6525C71.658 64.7694 74.4148 66.0413 75.9755 68.805C76.6905 70.0769 77.1855 71.6238 77.4467 73.0606C77.6736 74.3119 77.4605 76.835 78.5536 77.7425C79.0486 78.155 80.0592 78.2306 80.3411 78.8494C81.118 80.5613 77.2955 82.3969 76.3123 82.7063C69.8086 84.7756 60.7542 82.4106 59.063 74.8344C57.7705 69.0869 62.9542 64.4325 68.5986 64.6525ZM19.6555 64.6731C16.5892 64.735 13.8186 65.9588 12.2098 68.695C11.4742 69.9531 10.9517 71.4863 10.663 72.9231C10.4155 74.1675 10.5805 76.6906 9.47358 77.5844C8.9717 77.99 7.96108 78.045 7.66545 78.6638C6.86108 80.3619 10.6492 82.2663 11.6255 82.5963C18.0948 84.7756 27.1905 82.5688 29.0123 75.0269C30.408 69.2931 25.2998 64.5563 19.6555 64.6731Z" fill="#312D2D"/>
<path d="M65.7182 29.5281C60.5207 23.0519 51.5764 20.2812 44.0001 20.2812C36.4307 20.2812 27.4795 23.0588 22.2889 29.5281C17.2082 35.8531 14.5476 44.0275 14.5889 54.9931C14.6301 63.8344 16.8989 70.6337 23.3132 75.9825C29.2532 80.9394 36.1214 83.6137 43.5601 83.6137C50.8751 83.6137 58.9463 81.0562 64.6663 76.0237C70.9432 70.5031 73.377 63.8344 73.4182 54.9931C73.4595 44.0206 70.7851 35.8531 65.7182 29.5281Z" fill="#FADCBC"/>
<path d="M48.2966 61.6274C46.7841 62.0536 45.2166 62.2668 43.9998 62.2668C42.7829 62.2668 41.2154 62.0605 39.7029 61.6274C39.0566 61.4418 38.8023 62.0605 39.036 62.4661C39.5173 63.3118 41.4491 65.0168 43.9998 65.0168C46.5504 65.0168 48.4823 63.3118 48.9635 62.4661C49.1973 62.0605 48.9429 61.4486 48.2966 61.6274Z" fill="#DBA689"/>
<path d="M52.8893 68.6125H35.1106C34.0931 68.6125 33.6531 69.3 34.3268 70.3244C35.2687 71.7613 38.7749 74.525 43.9999 74.525C49.2249 74.525 52.7312 71.7613 53.6731 70.3244C54.3468 69.3 53.9137 68.6125 52.8893 68.6125Z" fill="#513F35"/>
<path d="M76.8557 24.6195L52.3945 8.31885H35.4682L11.007 24.6195L7.80322 36.1488L11.172 46.5026L13.5576 51.0882C26.462 48.1526 39.4214 39.1257 43.5051 34.0588C43.732 33.7838 44.1445 33.7838 44.3714 34.0588C48.4551 39.1257 61.112 48.0288 74.3189 51.0882L76.6976 46.5026L80.0664 36.1488L76.8557 24.6195Z" fill="#312D2D"/>
<path d="M32.2302 55.2475C32.2302 57.8668 30.4771 59.9912 28.3046 59.9912C26.1321 59.9912 24.3652 57.8668 24.3652 55.2475C24.3652 52.6212 26.1321 50.4968 28.3046 50.4968C30.4771 50.4968 32.2302 52.6212 32.2302 55.2475ZM63.6352 55.2475C63.6352 57.8668 61.8821 59.9912 59.7096 59.9912C57.5371 59.9912 55.7702 57.8668 55.7702 55.2475C55.7702 52.6212 57.5371 50.4968 59.7096 50.4968C61.8752 50.4968 63.6352 52.6212 63.6352 55.2475Z" fill="#444444"/>
</svg>
