<svg width="88" height="88" viewBox="0 0 88 88" fill="none" xmlns="http://www.w3.org/2000/svg">
<path d="M76.5943 45.7463C76.5943 45.7463 82.6581 46.7982 82.6581 53.3295C82.6581 59.0907 78.2306 61.3663 73.8099 61.3663V45.7463H76.5943ZM11.4055 45.7463C11.4055 45.7463 5.3418 46.7982 5.3418 53.3295C5.3418 59.0907 9.7693 61.3663 14.1899 61.3663V45.7463H11.4055Z" fill="#DBA689"/>
<path d="M71.5001 22.3782C64.8932 12.6363 56.3751 9.31567 44.0001 9.31567C31.6251 9.31567 23.107 12.6363 16.5001 22.3782C11.6601 29.5075 10.4913 40.7275 11.9832 52.2844C13.4201 63.3944 15.9845 70.1594 23.107 76.3813C29.2945 81.785 36.3207 83.6138 43.5257 83.6138H44.4607C51.6657 83.6138 58.6988 81.785 64.8795 76.3813C72.002 70.1594 74.5663 63.3944 76.0032 52.2844C77.5088 40.7275 76.3401 29.5075 71.5001 22.3782Z" fill="#FADCBC"/>
<path d="M47.5956 62.0057C46.3306 62.3632 45.0174 62.5419 43.9999 62.5419C42.9824 62.5419 41.6693 62.37 40.4043 62.0057C39.8612 61.8544 39.6481 62.3632 39.8406 62.7069C40.2393 63.415 41.8618 64.8382 43.9931 64.8382C46.1312 64.8382 47.7468 63.415 48.1456 62.7069C48.3518 62.3632 48.1387 61.8544 47.5956 62.0057Z" fill="#DBA689"/>
<path d="M50.3663 68.3718H37.6751C36.9463 68.3718 36.637 68.9425 37.1182 69.8018C37.792 71.005 40.2876 73.315 44.0207 73.315C47.7538 73.315 50.2495 71.005 50.9232 69.8018C51.4045 68.9493 51.0882 68.3718 50.3663 68.3718Z" fill="#513F35"/>
<path d="M32.1338 54.0237C32.1338 57.0349 30.1194 59.4687 27.6238 59.4687C25.1351 59.4687 23.1069 57.028 23.1069 54.0237C23.1069 51.0055 25.1351 48.5718 27.6238 48.5718C30.1194 48.5649 32.1338 51.0055 32.1338 54.0237ZM64.8932 54.0237C64.8932 57.0349 62.8788 59.4687 60.3832 59.4687C57.8944 59.4687 55.8663 57.028 55.8663 54.0237C55.8663 51.0055 57.8944 48.5718 60.3832 48.5718C62.8788 48.5649 64.8932 51.0055 64.8932 54.0237Z" fill="#444444"/>
<path d="M40.707 9.40489C44.9695 9.11614 48.5308 11.5155 48.3589 15.2143C48.0014 22.8936 38.7614 21.9861 35.3721 18.9955C34.9114 18.5899 34.1758 18.9749 34.2377 19.5868C34.4439 21.6493 35.7502 24.2205 38.8577 26.1593C43.7114 29.1911 57.4064 27.3143 57.4064 15.1524C57.4064 6.29739 48.0839 2.85989 42.2264 3.80864C36.8295 4.68176 33.0758 8.65551 32.5396 10.608C34.7258 10.058 37.5583 9.57676 40.707 9.40489Z" fill="#312D2D"/>
</svg>
