<svg width="82" height="82" viewBox="0 0 82 82" fill="none" xmlns="http://www.w3.org/2000/svg">
<g clip-path="url(#clip0_48_204)">
<circle cx="40.7812" cy="40.8256" r="40.8256" fill="#FAE7C7"/>
<path d="M36.2289 66.1172L12.1252 42.1419C11.9861 42.0037 11.8758 41.8394 11.8006 41.6584C11.7253 41.4773 11.6865 41.2832 11.6865 41.0872C11.6865 40.8912 11.7253 40.6971 11.8006 40.516C11.8758 40.335 11.9861 40.1707 12.1252 40.0324L18.2102 33.9406C18.7917 33.3591 19.7315 33.3591 20.313 33.9406L36.1815 49.7145C36.763 50.296 37.7096 50.2892 38.291 49.7077L73.3547 14.306C73.9361 13.7178 74.8827 13.7178 75.4709 14.2993L81.5628 20.3911C82.1442 20.9726 82.1442 21.9124 81.5695 22.4939L43.3687 61.0395L43.3755 61.0463L38.3384 66.1104C37.7569 66.6919 36.8103 66.6919 36.2289 66.1172Z" fill="#B1C937"/>
</g>
<defs>
<clipPath id="clip0_48_204">
<rect width="82" height="82" fill="white"/>
</clipPath>
</defs>
</svg>
