<svg width="88" height="88" viewBox="0 0 88 88" fill="none" xmlns="http://www.w3.org/2000/svg">
<g clip-path="url(#clip0_48_231)">
<path d="M74.5455 52.3256L87.0236 47.6231L75.618 40.7L85.5523 31.8037L72.4211 29.4731L78.478 17.5862L65.388 20.1575L66.7423 6.88874L55.4742 14.025L51.9405 1.16874L43.9998 11.88L36.0592 1.16187L32.5323 14.0181L21.2573 6.89561L22.6117 20.1644L9.5217 17.5931L15.5717 29.48L2.44045 31.8106L12.3817 40.7L0.976074 47.6231L13.4542 52.3256L5.32795 62.8925L18.6586 62.7687L14.8911 75.5631L27.2867 70.6337L28.3936 83.9231L38.163 74.8481L43.9998 86.8381L49.8367 74.8481L59.613 83.9231L60.7198 70.6337L73.1086 75.5631L69.3411 62.7687L82.6786 62.8925L74.5455 52.3256ZM44.0067 73.3287C27.8092 73.3287 14.678 60.1975 14.678 44C14.678 27.8025 27.8092 14.6712 44.0067 14.6712C60.1973 14.6712 73.3286 27.8025 73.3286 44C73.3286 60.1975 60.1973 73.3219 44.0067 73.3287Z" fill="#FCC21B"/>
<path d="M44 87.553C43.725 87.553 43.4775 87.3949 43.3538 87.1474L37.9431 76.0237L28.8819 84.4387C28.6825 84.6312 28.3938 84.6862 28.1394 84.583C27.8781 84.4868 27.7063 84.2462 27.6788 83.9712L26.6544 71.6443L15.1594 76.2162C14.905 76.3193 14.6163 76.2643 14.41 76.0787C14.2038 75.8931 14.1281 75.6112 14.2038 75.343L17.6963 63.4837L5.335 63.6143H5.32813C5.05313 63.6143 4.80563 63.463 4.68188 63.2155C4.55813 62.968 4.58563 62.6724 4.7575 62.4593L12.2925 52.6555L0.728752 48.2899C0.474377 48.1937 0.288752 47.9599 0.268127 47.6849C0.240627 47.4099 0.378127 47.1487 0.611877 47.0043L11.1856 40.5899L1.96625 32.3399C1.76688 32.1543 1.6775 31.8724 1.75313 31.6043C1.82875 31.3362 2.04875 31.1437 2.31688 31.0955L14.4925 28.9368L8.8825 17.9162C8.75188 17.6687 8.78625 17.3799 8.95125 17.1599C9.11625 16.9399 9.39813 16.8299 9.65938 16.8918L21.8006 19.2774L20.5425 6.97117C20.515 6.69617 20.6525 6.43492 20.8794 6.29055C21.12 6.14617 21.4156 6.14617 21.6425 6.29055L32.0994 12.8974L35.3719 0.976174C35.4406 0.714924 35.6675 0.508674 35.9356 0.460549C36.2175 0.405549 36.4788 0.515549 36.6438 0.735549L44 10.6699L51.3631 0.735549C51.5281 0.515549 51.81 0.405549 52.0713 0.460549C52.3394 0.508674 52.5594 0.708049 52.635 0.976174L55.9075 12.8974L66.3644 6.29055C66.5981 6.1393 66.8938 6.14617 67.1275 6.29055C67.3613 6.43492 67.4919 6.70305 67.4644 6.97117L66.2063 19.2774L78.3406 16.8918C78.6088 16.8299 78.8838 16.9468 79.0488 17.1599C79.2138 17.3799 79.2413 17.6755 79.1175 17.9162L73.5075 28.9368L85.6831 31.0955C85.9513 31.1437 86.1713 31.3431 86.2538 31.6043C86.3294 31.8656 86.2469 32.1543 86.0406 32.3399L76.8213 40.5899L87.4019 47.0043C87.6356 47.1487 87.7731 47.4099 87.7456 47.6849C87.725 47.9599 87.5463 48.1937 87.285 48.2899L75.7144 52.6487L83.2563 62.4524C83.4213 62.6724 83.4556 62.9681 83.325 63.2087C83.2081 63.4493 82.9538 63.6074 82.6856 63.6074H82.6788L70.3106 63.4905L73.7481 75.1506C73.8238 75.2674 73.8719 75.4049 73.8719 75.5562C73.8719 75.9549 73.5488 76.278 73.1569 76.278H73.1225C73.0331 76.278 72.9438 76.2574 72.8544 76.2299L61.3663 71.6581L60.3419 83.9849C60.3213 84.2599 60.1425 84.4937 59.8813 84.5968C59.6269 84.6999 59.3381 84.6449 59.1388 84.4524L50.0706 76.0374L44.66 87.1612C44.5225 87.3949 44.275 87.553 44 87.553ZM38.1631 74.1262C38.2113 74.1262 38.2525 74.133 38.2938 74.1399C38.5206 74.1812 38.7131 74.3256 38.8094 74.5318L44 85.1949L49.1906 74.5318C49.2869 74.3256 49.4794 74.1812 49.7063 74.1399C49.9194 74.0987 50.16 74.1674 50.325 74.3187L59.0219 82.3899L60.005 70.5718C60.0145 70.4599 60.0502 70.3519 60.109 70.2563C60.1679 70.1607 60.2484 70.0802 60.344 70.0214C60.4396 69.9625 60.5477 69.9269 60.6596 69.9175C60.7714 69.908 60.884 69.9249 60.9881 69.9668L72.0088 74.3531L68.6538 62.9749C68.5919 62.7549 68.6331 62.5212 68.7706 62.3355C68.9013 62.1568 69.1144 62.0537 69.3413 62.0537H69.3481L81.2075 62.1637L73.975 52.7587C73.8306 52.5799 73.7894 52.3462 73.8513 52.1262C73.9131 51.9062 74.0781 51.7274 74.2913 51.6518L85.3875 47.4718L75.2469 41.3187C75.0544 41.2018 74.9238 40.9955 74.9031 40.7687C74.8894 40.5418 74.9719 40.3218 75.1438 40.1637L83.9781 32.2574L72.3044 30.1812C72.0775 30.1399 71.8919 29.9956 71.7888 29.7962C71.6856 29.5899 71.6856 29.3493 71.7888 29.1499L77.1788 18.5762L65.5394 20.8655C65.3194 20.9137 65.0856 20.8449 64.9206 20.6937C64.7488 20.5424 64.6663 20.3155 64.6869 20.0887L65.89 8.29117L55.8663 14.6299C55.6669 14.7468 55.4263 14.7743 55.22 14.6918C55.1153 14.6508 55.0217 14.586 54.9465 14.5025C54.8713 14.4189 54.8166 14.3189 54.7869 14.2105L51.6381 2.77742L44.5775 12.3062C44.3025 12.6705 43.6975 12.6705 43.4225 12.3062L36.3619 2.77742L33.2269 14.2105C33.1966 14.3187 33.1415 14.4184 33.066 14.5016C32.9905 14.5848 32.8967 14.6493 32.792 14.69C32.6873 14.7306 32.5745 14.7464 32.4627 14.736C32.3508 14.7256 32.2429 14.6893 32.1475 14.6299L22.1238 8.29117L23.3269 20.0887C23.3475 20.3155 23.265 20.5355 23.0931 20.6937C22.9281 20.8449 22.6875 20.9137 22.4744 20.8655L10.835 18.5762L16.2113 29.1499C16.2613 29.25 16.2874 29.3603 16.2874 29.4722C16.2874 29.5841 16.2614 29.6944 16.2113 29.7945C16.1613 29.8946 16.0886 29.9816 15.9991 30.0487C15.9096 30.1158 15.8057 30.1612 15.6956 30.1812L4.02188 32.2574L12.8563 40.1637C12.9395 40.2395 13.0039 40.3336 13.0445 40.4386C13.085 40.5436 13.1006 40.6566 13.0899 40.7687C13.0792 40.8807 13.0426 40.9888 12.983 41.0842C12.9233 41.1797 12.8423 41.2599 12.7463 41.3187L2.6125 47.4718L13.7088 51.6518C13.9219 51.7343 14.0869 51.9062 14.1488 52.1262C14.2106 52.3462 14.1625 52.5799 14.0319 52.7587L6.79938 62.1637L18.6519 62.0537H18.6588C18.8856 62.0537 19.0988 62.1568 19.2294 62.3355C19.3669 62.5212 19.4081 62.7549 19.3463 62.9749L15.9981 74.3462L27.0188 69.9599C27.2319 69.8774 27.4725 69.898 27.665 70.0149C27.8644 70.1318 27.9813 70.3381 28.0019 70.5649L28.985 82.383L37.675 74.3187C37.8125 74.1949 37.9844 74.1262 38.1631 74.1262ZM44.0069 74.0437C27.4381 74.0437 13.9631 60.5618 13.9563 43.9999C13.9563 27.4312 27.4381 13.9562 44.0069 13.9562C60.5688 13.9562 74.0506 27.4312 74.0506 43.9999C74.0506 60.5618 60.5688 74.0437 44.0069 74.0437ZM44.0069 15.393C28.2356 15.393 15.4 28.2287 15.3931 43.9999C15.3931 59.7712 28.2288 72.6068 44.0069 72.6068C59.7781 72.6068 72.6069 59.7712 72.6069 43.9999C72.6069 28.2287 59.7781 15.393 44.0069 15.393Z" fill="#FCC21B"/>
<path d="M43.9999 69.6714C58.1777 69.6714 69.6711 58.178 69.6711 44.0001C69.6711 29.8223 58.1777 18.3289 43.9999 18.3289C29.822 18.3289 18.3286 29.8223 18.3286 44.0001C18.3286 58.178 29.822 69.6714 43.9999 69.6714Z" fill="#FCC21B"/>
<path d="M44.6327 58.9943C43.0515 59.0081 41.4427 58.6643 40.1365 58.0112C39.4833 57.6881 38.8096 57.2481 38.2871 56.7393C37.7646 56.2237 37.2558 55.3162 37.8746 54.6906C38.3765 54.1887 39.1052 54.6906 39.5865 54.9518C40.9477 55.6943 42.5015 56.2375 44.0758 56.3062C45.8221 56.3818 47.2383 55.8525 48.744 55.0618C49.1702 54.835 50.0227 54.285 50.5246 54.5875C51.7758 55.3506 50.2908 56.7187 49.6446 57.2618C48.2558 58.4375 46.4683 58.9737 44.6327 58.9943ZM44.0621 52.6006C46.9221 52.6006 48.4896 50.2287 47.424 49.6993C46.3515 49.17 46.2483 51.0881 44.0621 51.0881C41.8758 51.0881 41.7727 49.17 40.7002 49.6993C39.6346 50.2287 41.209 52.6006 44.0621 52.6006Z" fill="#2F2F2F"/>
<path d="M35.3717 43.8832C35.3717 46.0282 33.7835 47.7745 31.8379 47.7745C29.8992 47.7745 28.311 46.0282 28.311 43.8832C28.311 41.7313 29.8923 39.992 31.8379 39.992C33.7835 39.9851 35.3717 41.7313 35.3717 43.8832Z" fill="#2F2F2F"/>
<path d="M56.1616 47.7676C58.1095 47.7676 59.6885 46.0254 59.6885 43.8764C59.6885 41.7273 58.1095 39.9851 56.1616 39.9851C54.2138 39.9851 52.6348 41.7273 52.6348 43.8764C52.6348 46.0254 54.2138 47.7676 56.1616 47.7676Z" fill="#2F2F2F"/>
</g>
<defs>
<clipPath id="clip0_48_231">
<rect width="88" height="88" fill="white"/>
</clipPath>
</defs>
</svg>
