<svg width="88" height="88" viewBox="0 0 88 88" fill="none" xmlns="http://www.w3.org/2000/svg">
<path d="M13.3511 30.8001C21.5461 25.0045 26.6198 18.3289 29.3973 13.8601C32.1748 18.3289 37.2486 24.9976 45.4436 30.8001C37.2554 36.5957 32.1748 43.2645 29.3973 47.7332C26.6267 43.2714 21.5461 36.5957 13.3511 30.8001ZM66.1373 56.2651C64.4186 54.0926 61.6411 51.2051 57.5298 48.5445C61.6411 45.8839 64.4117 42.9964 66.1373 40.8239C67.8561 42.9964 70.6336 45.8839 74.7379 48.5445C70.6336 51.2051 67.8629 54.0926 66.1373 56.2651ZM43.8004 75.9001C41.9765 73.2239 39.761 70.8369 37.2279 68.8189C40.2392 66.4195 42.3704 63.8345 43.8004 61.7307C45.2304 63.8276 47.3617 66.4195 50.3729 68.8189C47.8399 70.8369 45.6243 73.2239 43.8004 75.9001Z" fill="#FCC21B"/>
<path d="M32.1061 55.0481C32.1611 54.9174 37.6679 42.0818 52.3186 33.3162L56.5261 30.7999L52.3186 28.2768C37.6679 19.5181 32.1611 6.68243 32.1129 6.55868L29.4179 0.0549316L26.6954 6.55181C26.6404 6.68243 21.1336 19.5181 6.48293 28.2837L2.26855 30.7999L6.47605 33.3162C21.1267 42.0818 26.6336 54.9174 26.6886 55.0481L29.3836 61.5381L32.1061 55.0481ZM13.3511 30.7999C21.5461 25.0043 26.6198 18.3287 29.3973 13.8599C32.1748 18.3287 37.2486 24.9974 45.4436 30.7999C37.2554 36.5956 32.1748 43.2643 29.3973 47.7331C26.6267 43.2712 21.5461 36.5956 13.3511 30.7999ZM81.0698 46.2412C71.9123 41.7174 68.4611 35.1518 68.4336 35.0968L66.1579 30.5868L63.8479 35.0899C63.8136 35.1518 60.3623 41.7174 51.2048 46.2481L46.5435 48.5512L51.2048 50.8543C60.3417 55.3712 63.7998 61.9093 63.8479 62.0124L66.1167 66.5156L68.4267 62.0124C68.4611 61.9506 71.9123 55.3849 81.0698 50.8543L85.731 48.5512L81.0698 46.2412ZM66.1373 56.2649C64.4185 54.0924 61.6411 51.2049 57.5298 48.5443C61.6411 45.8837 64.4117 42.9962 66.1373 40.8237C67.856 42.9962 70.6336 45.8837 74.7379 48.5443C70.6336 51.2049 67.8629 54.0924 66.1373 56.2649ZM46.1861 55.5637L43.8279 49.6924L41.4286 55.5568C41.4011 55.6187 38.6579 62.1637 31.4323 66.6324L27.8986 68.8187L31.4323 70.9981C38.6236 75.4462 41.3736 81.9431 41.4286 82.0737L43.7867 87.9381L46.1861 82.0737C46.2136 82.0049 48.9498 75.4668 56.1823 70.9981L59.7161 68.8187L56.1823 66.6324C48.9498 62.1637 46.2067 55.6256 46.1861 55.5637ZM43.8004 75.8999C41.9765 73.2237 39.761 70.8367 37.2279 68.8187C40.2392 66.4193 42.3704 63.8343 43.8004 61.7306C45.2304 63.8274 47.3617 66.4193 50.3729 68.8187C47.8399 70.8367 45.6243 73.2237 43.8004 75.8999Z" fill="#F79329"/>
</svg>
