<svg width="88" height="88" viewBox="0 0 88 88" fill="none" xmlns="http://www.w3.org/2000/svg">
<path d="M67.9937 54.8968C67.1343 53.3362 68.2274 51.7481 70.0974 49.7818C73.0605 46.6606 76.2849 39.4212 73.2874 32.0718C73.308 32.0305 72.6962 30.793 72.7168 30.7518L71.4862 30.6899C71.0943 30.6349 57.5574 30.6074 44.0068 30.6074C30.4562 30.6074 16.9193 30.6349 16.5274 30.6899C16.5274 30.6899 14.7056 32.0305 14.7193 32.0718C11.7287 39.4212 14.9462 46.6537 17.9093 49.7818C19.7724 51.7481 20.8656 53.3362 20.0131 54.8968C19.1812 56.4162 16.7062 56.6362 16.7062 56.6362C16.7062 56.6362 17.2768 58.1899 18.6518 59.0287C19.9237 59.8055 21.4912 59.9843 22.5706 60.0118C22.5706 60.0118 26.7987 65.8624 37.8537 65.8624H50.1599C61.2149 65.8624 65.4431 60.0118 65.4431 60.0118C66.5224 59.9843 68.0899 59.8055 69.3618 59.0287C70.7368 58.1899 71.3074 56.6362 71.3074 56.6362C71.3074 56.6362 68.8256 56.4162 67.9937 54.8968Z" fill="#312D2D"/>
<path d="M43.9932 65.8555V59.3655L63.635 57.8118L65.4225 60.0118C65.4225 60.0118 61.1944 65.8624 50.1394 65.8624L43.9932 65.8555Z" fill="url(#paint0_radial_48_165)"/>
<path d="M65.3815 57.1726C62.439 52.7038 68.9634 51.0332 68.9634 51.0332L68.9702 51.0401C67.8359 52.4494 67.3202 53.6801 67.9871 54.8969C68.819 56.4163 71.294 56.6363 71.294 56.6363C71.294 56.6363 67.9184 59.6338 65.3815 57.1726Z" fill="url(#paint1_radial_48_165)"/>
<path d="M73.3012 32.072C76.2231 39.1876 73.15 46.5163 70.2693 49.6101C69.8775 50.0363 68.2 51.6795 67.815 52.9926C67.815 52.9926 61.2562 43.842 59.2968 38.4657C58.905 37.3795 58.5406 36.2657 58.4925 35.1107C58.4581 34.2445 58.5887 33.2132 59.0906 32.4776C59.7025 31.577 72.9506 31.3088 72.9506 31.3088C72.9506 31.3157 73.3012 32.072 73.3012 32.072Z" fill="url(#paint2_radial_48_165)"/>
<path d="M14.7125 32.0718C11.7975 39.1874 14.8707 46.5161 17.7444 49.603C18.1432 50.0293 19.8138 51.6724 20.1988 52.9855C20.1988 52.9855 26.7575 43.8349 28.7169 38.4586C29.1157 37.3724 29.4732 36.2586 29.5213 35.1036C29.5557 34.2374 29.425 33.2061 28.9232 32.4705C28.3113 31.5699 27.5963 31.8105 26.5582 31.8105C24.5782 31.8105 15.9088 31.3018 15.235 31.3018C15.2419 31.3155 14.7125 32.0718 14.7125 32.0718Z" fill="url(#paint3_radial_48_165)"/>
<path d="M44.0207 65.8555V59.3655L24.3788 57.8118L22.5913 60.0118C22.5913 60.0118 26.8194 65.8624 37.8744 65.8624L44.0207 65.8555Z" fill="url(#paint4_radial_48_165)"/>
<path d="M22.6327 57.1726C25.5752 52.7038 19.0508 51.0332 19.0508 51.0332L19.044 51.0401C20.1783 52.4494 20.694 53.6801 20.0271 54.8969C19.1952 56.4163 16.7202 56.6363 16.7202 56.6363C16.7202 56.6363 20.0958 59.6338 22.6327 57.1726Z" fill="url(#paint5_radial_48_165)"/>
<path d="M78.7188 83.0156C78.7188 72.38 61.2975 66.8181 44.0962 66.8181H44C26.7163 66.8387 9.28125 71.8506 9.28125 83.0156V85.25H78.7188V83.0156Z" fill="url(#paint6_linear_48_165)"/>
<path d="M43.9998 63.4768H37.7573V70.3381L43.9861 71.9743L50.2423 70.3381V63.4768H43.9998Z" fill="#EDC391"/>
<path d="M8.25 83.0155V85.2499H30.8619L31.7763 66.6599C18.92 68.5574 8.25 73.6655 8.25 83.0155Z" fill="url(#paint7_linear_48_165)"/>
<path d="M56.2236 66.6599L57.1311 85.2499H79.7499V83.0155C79.7499 73.6655 69.0799 68.5574 56.2236 66.6599Z" fill="url(#paint8_linear_48_165)"/>
<path d="M37.1456 63.3325L44.0138 72.1463L32.8488 76.7113L31.1919 66.715L37.1456 63.3325Z" fill="#66C0E8"/>
<path d="M50.8545 63.3325L43.9863 72.1463L55.1513 76.7113L56.8082 66.715L50.8545 63.3325Z" fill="#66C0E8"/>
<path d="M33.6052 65.3124C33.6052 65.3124 32.8214 67.1825 32.2714 69.4375C31.1783 73.92 31.1096 80.3 31.1096 80.3C31.1096 80.3 26.3727 78.6912 24.8946 74.7656C23.1483 70.125 26.0977 67.5743 26.0977 67.5743C26.0977 67.5743 26.7164 67.3131 29.3152 65.8831C31.9139 64.4531 33.6052 65.3124 33.6052 65.3124ZM54.3952 65.3124C54.3952 65.3124 55.1789 67.1825 55.7289 69.4375C56.822 73.92 56.8908 80.3 56.8908 80.3C56.8908 80.3 61.6277 78.6912 63.1058 74.7656C64.852 70.125 61.9027 67.5743 61.9027 67.5743C61.9027 67.5743 61.2839 67.3131 58.6852 65.8831C56.0864 64.4531 54.3952 65.3124 54.3952 65.3124Z" fill="#AF5214"/>
<path d="M62.645 34.6707H25.0731C21.0237 34.6707 17.71 38.2044 17.71 42.515C17.71 46.8257 21.0237 50.3594 25.0731 50.3594H62.645C66.6943 50.3594 70.0081 46.8257 70.0081 42.515C70.0081 38.2044 66.6943 34.6707 62.645 34.6707Z" fill="#EDC391"/>
<path d="M43.8555 7.6106C31.893 7.6106 20.8105 20.405 20.8105 38.8231C20.8105 57.1381 32.2299 66.1925 43.8555 66.1925C55.4812 66.1925 66.9005 57.1312 66.9005 38.8162C66.9005 20.405 55.8249 7.6106 43.8555 7.6106Z" fill="#F9DDBD"/>
<path d="M32.9861 43.938C34.858 43.938 36.3754 42.3682 36.3754 40.4318C36.3754 38.4953 34.858 36.9255 32.9861 36.9255C31.1142 36.9255 29.5967 38.4953 29.5967 40.4318C29.5967 42.3682 31.1142 43.938 32.9861 43.938Z" fill="#312D2D"/>
<path d="M54.4016 43.938C56.2735 43.938 57.791 42.3682 57.791 40.4318C57.791 38.4953 56.2735 36.9255 54.4016 36.9255C52.5297 36.9255 51.0122 38.4953 51.0122 40.4318C51.0122 42.3682 52.5297 43.938 54.4016 43.938Z" fill="#312D2D"/>
<path d="M38.0667 34.2513C37.4273 33.4056 35.9561 32.1819 33.0961 32.1819C30.2361 32.1819 28.7579 33.4125 28.1254 34.2513C27.8436 34.6225 27.9123 35.0556 28.1117 35.3169C28.2904 35.5575 28.8267 35.7844 29.4179 35.585C30.0092 35.3856 31.1642 34.7875 33.0961 34.7738C35.0279 34.7875 36.1829 35.3856 36.7742 35.585C37.3654 35.7844 37.9017 35.5644 38.0804 35.3169C38.2729 35.0556 38.3486 34.6225 38.0667 34.2513ZM59.3723 34.2513C58.7329 33.4056 57.2617 32.1819 54.4017 32.1819C51.5417 32.1819 50.0636 33.4125 49.4311 34.2513C49.1492 34.6225 49.2179 35.0556 49.4173 35.3169C49.5961 35.5575 50.1323 35.7844 50.7236 35.585C51.3148 35.3856 52.4698 34.7875 54.4017 34.7738C56.3336 34.7875 57.4886 35.3856 58.0798 35.585C58.6711 35.7844 59.2073 35.5644 59.3861 35.3169C59.5854 35.0556 59.6542 34.6225 59.3723 34.2513Z" fill="#454140"/>
<path d="M46.5095 46.7913C46.4339 46.7638 46.3651 46.7432 46.2895 46.7363H41.422C41.3464 46.7432 41.2707 46.7638 41.202 46.7913C40.762 46.9701 40.5214 47.4238 40.7276 47.912C40.9339 48.4001 41.9032 49.7613 43.8557 49.7613C45.8082 49.7613 46.7776 48.3932 46.9838 47.912C47.197 47.4238 46.9495 46.9701 46.5095 46.7913Z" fill="#DBA689"/>
<path d="M49.7201 52.3463C47.5338 53.6457 40.3495 53.6457 38.1632 52.3463C36.9051 51.5969 35.6195 52.7451 36.142 53.8863C36.6576 55.0069 40.5695 57.6126 43.9588 57.6126C47.3482 57.6126 51.212 55.0069 51.7276 53.8863C52.2501 52.7451 50.9782 51.5969 49.7201 52.3463Z" fill="#444444"/>
<path d="M64.5082 36.3894C64.4601 35.5713 64.4257 35.4888 63.3463 35.145C62.5007 34.8769 57.8807 34.4988 54.4019 34.6913C54.1544 34.705 53.9138 34.7188 53.6869 34.7394C50.5313 35.0075 46.7432 36.2794 43.8969 36.3481C42.6869 36.3756 37.7026 35.0694 34.1757 34.7944C33.9488 34.7806 33.7219 34.76 33.4882 34.7531C30.0026 34.5744 25.3619 34.98 24.5163 35.255C23.4369 35.6056 23.4026 35.6881 23.3613 36.5063C23.3132 37.3244 23.4507 38.0188 24.0901 38.2319C24.9632 38.5206 24.9701 39.6069 25.5544 42.7281C26.0838 45.5744 27.3557 47.8225 32.8213 48.2144C33.0551 48.2281 33.2751 48.2419 33.4951 48.2419C38.3282 48.3106 39.9919 45.1275 40.5419 44.0688C41.5663 42.1025 41.2432 39.3938 43.9519 39.3869C46.6538 39.38 46.3994 42.0406 47.4376 44C47.9944 45.0519 49.6169 48.2488 54.4088 48.18C54.6426 48.18 54.8832 48.1663 55.1307 48.1456C60.5894 47.7194 61.8544 45.4644 62.3632 42.6181C62.9269 39.49 62.9338 38.3969 63.8001 38.1081C64.4257 37.9019 64.5632 37.2075 64.5082 36.3894ZM36.6301 46.8669C35.7913 47.2588 34.6707 47.4581 33.4882 47.4581C31.0201 47.4513 28.2838 46.585 27.2938 44.8388C25.8913 42.35 25.5269 37.3175 27.3144 36.2656C28.0982 35.805 30.7451 35.4888 33.4813 35.6056C36.3207 35.7294 39.2563 36.3206 40.3151 37.7094C42.0682 39.9988 39.2838 45.6156 36.6301 46.8669ZM60.6238 44.7356C59.6407 46.4956 56.8838 47.3825 54.4019 47.3894C53.2332 47.3963 52.1263 47.2038 51.3013 46.8188C48.6407 45.5813 45.8219 39.985 47.5544 37.6819C48.6063 36.2794 51.5557 35.6744 54.4019 35.5369C57.1313 35.4063 59.7713 35.7088 60.5482 36.1625C62.3426 37.2075 62.0126 42.24 60.6238 44.7356Z" fill="#212121" stroke="#212121" stroke-width="0.55" stroke-miterlimit="10"/>
<path opacity="0.67" d="M69.8982 83.6068L70.2901 82.0943L70.297 82.0599L71.6239 76.8349L66.8801 75.4737L42.8726 68.578C42.8382 68.5712 42.8107 68.5712 42.7832 68.5574C41.7097 68.2748 40.5682 68.4238 39.6031 68.9725C38.6381 69.5212 37.9263 70.426 37.6201 71.493L33.667 85.2499H69.4307L69.8982 83.6068Z" fill="url(#paint9_linear_48_165)"/>
<path d="M72.7031 76.9176C72.9025 76.2232 72.5038 75.5013 71.8094 75.3088L45.21 67.6776C44.126 67.3677 42.9634 67.5006 41.9773 68.0472C40.9913 68.5937 40.2624 69.5091 39.9506 70.5926L35.75 85.2501H70.3175L72.7031 76.9176Z" fill="#424242"/>
<path d="M72.2425 82.7132C72.4831 81.8744 71.9812 80.9944 71.1287 80.7538L42.5837 72.5725C39.4694 71.6788 38.9262 74.1882 38.0531 77.2338L35.75 85.25H71.5137L72.2425 82.7132Z" fill="url(#paint10_linear_48_165)"/>
<path d="M43.4912 67.54C42.67 67.6464 41.8978 67.9909 41.2698 68.5308C40.6419 69.0708 40.1857 69.7827 39.9575 70.5788L35.75 85.25H38.4106L43.4912 67.54Z" fill="url(#paint11_linear_48_165)"/>
<path opacity="0.2" d="M44.227 69.8294C44.3508 69.8294 44.4882 69.8432 44.6326 69.8775L70.242 77.2338L70.0289 77.9763C61.9232 75.7144 46.4545 71.3625 43.2576 70.3038C43.4226 70.0769 43.7458 69.8294 44.227 69.8294ZM44.227 67.54C41.1195 67.54 39.5657 71.3694 42.082 72.3113C44.8526 73.3425 71.5964 80.7813 71.5964 80.7813L72.6826 76.9863C72.8957 76.2575 72.552 75.515 71.9195 75.3363L45.217 67.6638C44.8732 67.5813 44.5433 67.54 44.227 67.54Z" fill="#424242"/>
<path d="M71.0667 77.0825L43.7042 69.2313C42.9617 69.0181 42.1505 69.5475 41.903 70.4069L41.8617 70.5581C41.6142 71.4175 42.0198 72.2975 42.7623 72.5106L70.1248 80.3619C70.1248 80.3619 69.8911 79.7913 70.173 78.7806C70.4548 77.7631 71.0667 77.0825 71.0667 77.0825Z" fill="url(#paint12_linear_48_165)"/>
<path d="M71.5482 17.2631C69.8707 14.7262 66.1101 11.3231 62.7344 11.0962C62.1913 7.85121 58.7194 5.10121 55.3576 4.03559C46.2619 1.15496 40.3426 4.38621 37.1663 6.11871C36.5063 6.47621 32.2369 8.84809 29.2532 7.14996C27.3832 6.08434 27.4176 3.20371 27.4176 3.20371C27.4176 3.20371 21.5601 5.43809 23.5607 11.66C21.5463 11.7425 18.9063 12.595 17.5107 15.4206C15.8469 18.7893 16.4382 21.6012 16.9194 22.9487C15.1869 24.42 13.0076 27.5481 14.4994 31.6112C15.6269 34.6706 20.1163 36.08 20.1163 36.08C19.8001 41.5868 20.8244 44.9762 21.3676 46.3443C21.4638 46.585 21.8007 46.5643 21.8626 46.3168C22.5432 43.5875 24.8669 34.0793 24.6332 32.4225C24.6332 32.4225 32.4363 30.8756 39.8751 25.3962C41.3876 24.2825 43.0307 23.3337 44.7769 22.6393C54.1201 18.92 56.0726 25.2656 56.0726 25.2656C56.0726 25.2656 62.5488 24.0212 64.5013 33.0137C65.2369 36.3825 65.7319 41.7793 66.1513 45.5537C66.1788 45.8218 66.5432 45.8768 66.6463 45.6293C67.2994 44.1306 68.6057 41.1606 68.9151 38.1287C69.0251 37.0631 71.8988 35.6537 73.1363 31.075C74.7932 24.97 72.7651 19.0987 71.5482 17.2631Z" fill="#312D2D"/>
<path d="M68.9012 38.1563C69.0112 37.0907 71.8849 35.6813 73.1224 31.1025C73.2531 30.6144 73.3631 30.1194 73.4662 29.6244C74.4699 24.0625 72.6687 18.9544 71.548 17.2632C69.9943 14.9188 66.6668 11.8388 63.5112 11.2063C63.2362 11.1719 62.9681 11.1375 62.7137 11.1238C62.7137 11.1238 62.9405 12.6019 62.3424 13.7775C61.5724 15.3038 59.998 15.6682 59.998 15.6682C68.2274 23.9044 67.6431 30.7932 68.9012 38.1563Z" fill="url(#paint13_radial_48_165)"/>
<path d="M39.1532 5.08065C38.397 5.44503 37.737 5.8094 37.1595 6.11878C36.4995 6.47628 32.2301 8.84815 29.2463 7.15003C27.4107 6.10503 27.4107 3.31378 27.4107 3.21753C26.5651 4.2969 24.0076 12.0038 31.4876 12.5194C34.712 12.7394 36.6988 9.92753 37.8813 7.54878C38.3076 6.68253 38.9745 5.41753 39.1532 5.08065Z" fill="url(#paint14_radial_48_165)"/>
<path d="M54.4223 3.76068C59.4548 5.12193 61.9092 7.6863 62.7273 11.1032C62.968 12.1069 63.2567 21.4707 45.3817 10.8282C38.7336 6.86818 40.5486 4.39318 41.3255 4.1113C44.3642 3.0113 48.7849 2.23443 54.4223 3.76068Z" fill="url(#paint15_radial_48_165)"/>
<path d="M27.3898 3.21761C27.3829 3.22448 27.3692 3.22448 27.3485 3.23823H27.3417C26.7023 3.50636 21.6767 5.83698 23.5535 11.6601L28.9023 12.5195C24.1654 7.72073 27.4104 3.20386 27.4104 3.20386C27.4104 3.20386 27.3967 3.21073 27.3898 3.21761Z" fill="url(#paint16_radial_48_165)"/>
<path d="M26.8608 12.1893L23.5539 11.6599C23.4233 11.6599 22.9833 11.7012 22.7427 11.7355C20.8795 11.9968 18.6864 12.9593 17.497 15.4205C16.2183 18.0743 16.2527 20.3499 16.6033 21.8693C16.7064 22.378 16.9127 22.9555 16.9127 22.9555C16.9127 22.9555 18.5489 21.4018 22.447 21.2987L26.8608 12.1893Z" fill="url(#paint17_radial_48_165)"/>
<path d="M16.7543 23.0863C15.1249 24.5301 12.9318 27.7545 14.5474 31.7557C15.7643 34.7738 20.1093 36.0801 20.1093 36.0801C20.1093 36.0938 20.9755 36.3551 21.4224 36.3551L22.4399 21.2988C20.3568 21.2988 18.3562 21.9245 17.0637 22.8251C17.0843 22.8457 16.7474 23.0657 16.7543 23.0863Z" fill="url(#paint18_radial_48_165)"/>
<defs>
<radialGradient id="paint0_radial_48_165" cx="0" cy="0" r="1" gradientUnits="userSpaceOnUse" gradientTransform="translate(54.0259 56.4784) scale(16.1006 7.9086)">
<stop offset="0.728" stop-color="#454140" stop-opacity="0"/>
<stop offset="1" stop-color="#454140"/>
</radialGradient>
<radialGradient id="paint1_radial_48_165" cx="0" cy="0" r="1" gradientUnits="userSpaceOnUse" gradientTransform="translate(69.8852 54.0826) rotate(154.924) scale(4.75795 3.52972)">
<stop offset="0.663" stop-color="#454140"/>
<stop offset="1" stop-color="#454140" stop-opacity="0"/>
</radialGradient>
<radialGradient id="paint2_radial_48_165" cx="0" cy="0" r="1" gradientUnits="userSpaceOnUse" gradientTransform="translate(57.5538 40.6254) rotate(-94.2783) scale(20.899 17.418)">
<stop offset="0.725" stop-color="#454140" stop-opacity="0"/>
<stop offset="1" stop-color="#454140"/>
</radialGradient>
<radialGradient id="paint3_radial_48_165" cx="0" cy="0" r="1" gradientUnits="userSpaceOnUse" gradientTransform="translate(30.4621 40.6249) rotate(-85.7217) scale(20.899 17.418)">
<stop offset="0.725" stop-color="#454140" stop-opacity="0"/>
<stop offset="1" stop-color="#454140"/>
</radialGradient>
<radialGradient id="paint4_radial_48_165" cx="0" cy="0" r="1" gradientUnits="userSpaceOnUse" gradientTransform="translate(33.9894 56.4784) rotate(180) scale(16.1006 7.9086)">
<stop offset="0.728" stop-color="#454140" stop-opacity="0"/>
<stop offset="1" stop-color="#454140"/>
</radialGradient>
<radialGradient id="paint5_radial_48_165" cx="0" cy="0" r="1" gradientUnits="userSpaceOnUse" gradientTransform="translate(18.1316 54.083) rotate(25.0761) scale(4.75795 3.52972)">
<stop offset="0.663" stop-color="#454140"/>
<stop offset="1" stop-color="#454140" stop-opacity="0"/>
</radialGradient>
<linearGradient id="paint6_linear_48_165" x1="44" y1="70.1882" x2="44" y2="80.4801" gradientUnits="userSpaceOnUse">
<stop stop-color="#E1F5FE"/>
<stop offset="1" stop-color="#81D4FA"/>
</linearGradient>
<linearGradient id="paint7_linear_48_165" x1="20.0152" y1="67.9552" x2="20.0152" y2="84.583" gradientUnits="userSpaceOnUse">
<stop stop-color="#FFA000"/>
<stop offset="0.341" stop-color="#FF9300"/>
<stop offset="0.972" stop-color="#FF7100"/>
<stop offset="1" stop-color="#FF6F00"/>
</linearGradient>
<linearGradient id="paint8_linear_48_165" x1="67.9854" y1="67.7633" x2="67.9854" y2="84.6951" gradientUnits="userSpaceOnUse">
<stop stop-color="#FFA000"/>
<stop offset="0.341" stop-color="#FF9300"/>
<stop offset="0.972" stop-color="#FF7100"/>
<stop offset="1" stop-color="#FF6F00"/>
</linearGradient>
<linearGradient id="paint9_linear_48_165" x1="54.7038" y1="72.3847" x2="52.9005" y2="79.9782" gradientUnits="userSpaceOnUse">
<stop offset="0.002" stop-color="#212121" stop-opacity="0.2"/>
<stop offset="1" stop-color="#212121" stop-opacity="0.6"/>
</linearGradient>
<linearGradient id="paint10_linear_48_165" x1="56.265" y1="76.2452" x2="54.9099" y2="80.7909" gradientUnits="userSpaceOnUse">
<stop stop-color="#EF5350"/>
<stop offset="1" stop-color="#E53935"/>
</linearGradient>
<linearGradient id="paint11_linear_48_165" x1="40.1534" y1="74.8599" x2="41.4342" y2="70.8339" gradientUnits="userSpaceOnUse">
<stop stop-color="#212121"/>
<stop offset="1" stop-color="#424242"/>
</linearGradient>
<linearGradient id="paint12_linear_48_165" x1="41.8849" y1="70.4807" x2="70.5941" y2="78.7195" gradientUnits="userSpaceOnUse">
<stop offset="0.01" stop-color="#BDBDBD"/>
<stop offset="0.987" stop-color="#F8F8F7"/>
</linearGradient>
<radialGradient id="paint13_radial_48_165" cx="0" cy="0" r="1" gradientUnits="userSpaceOnUse" gradientTransform="translate(56.3866 29.5979) rotate(72.0851) scale(24.4973 18.1764)">
<stop offset="0.699" stop-color="#454140" stop-opacity="0"/>
<stop offset="1" stop-color="#454140"/>
</radialGradient>
<radialGradient id="paint14_radial_48_165" cx="0" cy="0" r="1" gradientUnits="userSpaceOnUse" gradientTransform="translate(32.5058 2.88858) rotate(28.2026) scale(6.42344 7.61633)">
<stop offset="0.58" stop-color="#454140"/>
<stop offset="1" stop-color="#454140" stop-opacity="0"/>
</radialGradient>
<radialGradient id="paint15_radial_48_165" cx="0" cy="0" r="1" gradientUnits="userSpaceOnUse" gradientTransform="translate(46.861 14.5539) rotate(-157.19) scale(20.0885 11.2898)">
<stop offset="0.699" stop-color="#454140" stop-opacity="0"/>
<stop offset="1" stop-color="#454140"/>
</radialGradient>
<radialGradient id="paint16_radial_48_165" cx="0" cy="0" r="1" gradientUnits="userSpaceOnUse" gradientTransform="translate(29.926 8.74845) scale(5.89531 7.21173)">
<stop offset="0.702" stop-color="#454140" stop-opacity="0"/>
<stop offset="1" stop-color="#454140"/>
</radialGradient>
<radialGradient id="paint17_radial_48_165" cx="0" cy="0" r="1" gradientUnits="userSpaceOnUse" gradientTransform="translate(29.1143 19.1546) rotate(-164.942) scale(11.0575 10.3478)">
<stop offset="0.66" stop-color="#454140" stop-opacity="0"/>
<stop offset="1" stop-color="#454140"/>
</radialGradient>
<radialGradient id="paint18_radial_48_165" cx="0" cy="0" r="1" gradientUnits="userSpaceOnUse" gradientTransform="translate(26.4936 29.8313) rotate(7.83355) scale(11.6095 16.3133)">
<stop offset="0.598" stop-color="#454140" stop-opacity="0"/>
<stop offset="1" stop-color="#454140"/>
</radialGradient>
</defs>
</svg>
