<svg width="24" height="24" viewBox="0 0 24 24" fill="none" xmlns="http://www.w3.org/2000/svg">
<path d="M20.3999 3.48007C19.3003 2.3722 17.9914 1.49402 16.5494 0.896593C15.1073 0.299167 13.5609 -0.00557973 12 7.73381e-05C9.91324 0.00211355 7.86369 0.552368 6.05654 1.59574C4.2494 2.6391 2.7481 4.13896 1.703 5.9451C0.657903 7.75124 0.105682 9.80027 0.101644 11.887C0.0976056 13.9737 0.641891 16.0248 1.67999 17.835L0 24L6.29998 22.35C8.0396 23.3178 9.9943 23.8336 11.985 23.85C15.1494 23.8501 18.1859 22.6003 20.4333 20.3725C22.6807 18.1447 23.9572 15.1194 23.9849 11.955C23.9744 10.376 23.6523 8.81457 23.0371 7.36026C22.4219 5.90595 21.5257 4.58735 20.3999 3.48007ZM12 21.795C10.2265 21.7962 8.48548 21.3194 6.95998 20.415L6.59998 20.19L2.86499 21.18L3.85499 17.535L3.61499 17.16C2.33887 15.1 1.86261 12.6435 2.27643 10.2559C2.69025 7.86824 3.9654 5.7153 5.86033 4.2049C7.75527 2.6945 10.1384 1.93156 12.5582 2.0606C14.978 2.18964 17.2664 3.2017 18.9899 4.90506C20.8739 6.74734 21.9524 9.26026 21.9899 11.895C21.9662 14.5289 20.9032 17.0468 19.0323 18.9009C17.1614 20.755 14.6339 21.7951 12 21.795ZM17.4149 14.385C17.1149 14.235 15.6599 13.515 15.3899 13.425C15.1199 13.335 14.9099 13.275 14.715 13.575C14.4215 13.9772 14.106 14.3627 13.77 14.73C13.605 14.94 13.425 14.955 13.125 14.73C11.4146 14.0541 9.9895 12.8092 9.08997 11.205C8.77497 10.68 9.38997 10.71 9.95997 9.58504C10.002 9.50394 10.024 9.41391 10.024 9.32254C10.024 9.23118 10.002 9.14115 9.95997 9.06005C9.95997 8.91005 9.28497 7.44005 9.04497 6.85505C8.80497 6.27005 8.56497 6.36005 8.36997 6.34505H7.78497C7.6334 6.34738 7.48408 6.38204 7.34698 6.44671C7.20988 6.51138 7.08817 6.60457 6.98998 6.72005C6.65341 7.04732 6.39089 7.44292 6.22012 7.88021C6.04935 8.31749 5.97428 8.7863 5.99998 9.25504C6.09403 10.3772 6.51663 11.4467 7.21498 12.33C8.49327 14.2437 10.2451 15.7939 12.3 16.83C13.3777 17.4592 14.6302 17.7223 15.8699 17.58C16.2828 17.4981 16.6738 17.3302 17.0175 17.0873C17.3612 16.8444 17.6499 16.5318 17.8649 16.17C18.0641 15.7285 18.1268 15.2375 18.0449 14.76C17.9099 14.61 17.7149 14.535 17.4149 14.385Z" fill="white" stroke="#1F841A"/>
</svg>
