<svg width="1585" height="383" viewBox="0 0 1585 383" fill="none" xmlns="http://www.w3.org/2000/svg">
<g filter="url(#filter0_d_48_47)">
<path d="M1580.2 158.74C1580.2 135.15 1561.08 116.02 1537.49 116.02C1533 116.02 1528.68 116.72 1524.61 118.01C1521.69 90.26 1498.22 68.63 1469.7 68.63C1461.99 68.63 1454.65 70.22 1447.98 73.08C1448.06 71.82 1448.17 70.56 1448.17 69.28C1448.17 34.33 1419.84 6 1384.89 6C1356.68 6 1332.81 24.47 1324.64 49.96C1319.91 48.15 1314.8 47.12 1309.43 47.12C1291.2 47.12 1275.68 58.56 1269.55 74.64C1263.17 70.84 1255.74 68.62 1247.77 68.62C1224.18 68.62 1205.06 87.74 1205.06 111.33C1205.06 117.02 1206.19 122.43 1208.21 127.4C1191.05 133.71 1177.74 148 1172.85 165.78C1161.23 155.43 1145.91 149.13 1129.12 149.13C1094.6 149.13 1066.29 175.72 1063.55 209.53C1059.46 207.38 1054.79 206.16 1049.84 206.16C1041.56 206.16 1034.08 209.57 1028.73 215.07C1024.19 202.27 1013.03 192.25 998.69 189.85C993.57 188.99 988.51 189.19 983.74 190.28C979.98 164.14 959.77 142.27 932.34 137.68C907.05 133.44 882.78 145.06 869.68 165.3C861.83 159.23 852.42 154.95 841.94 153.2C816.34 148.91 791.77 160.88 778.8 181.59C774.52 178.48 769.49 176.3 763.93 175.36C747.4 172.58 731.64 181.81 725.52 196.68C718.08 192.1 709.33 189.45 699.96 189.45C693.15 189.45 686.67 190.85 680.78 193.37C676.27 165.59 652.18 144.39 623.13 144.39C610.74 144.39 599.25 148.26 589.8 154.84C575.6 129.11 548.21 111.68 516.75 111.68C488.6 111.68 463.72 125.63 448.62 146.99C448.59 146.99 448.57 146.99 448.54 146.99C433.08 146.99 419.26 154.09 410.2 165.19C403.1 129.95 371.98 103.41 334.63 103.41C318.95 103.41 304.34 108.09 292.17 116.16C292.34 114.83 292.41 113.47 292.41 112.09C292.41 92.82 276.8 77.19 257.54 77.19C252.72 77.19 248.11 78.16 243.92 79.95C242.37 53.48 220.41 32.5 193.56 32.5C175.6 32.5 159.82 41.9 150.88 56.08C141.5 51.72 131.03 49.29 120 49.29C79.36 49.29 46.42 82.23 46.42 122.87C46.42 132.71 48.36 142.09 51.87 150.64C24.65 155.39 4 179.14 4 207.71C4 239.75 29.96 265.71 62 265.71H354.91C363.97 284.98 383.54 298.32 406.24 298.32C406.35 298.32 406.45 298.31 406.56 298.31C409.88 333.23 439.29 360.55 475.08 360.55C501.08 360.55 523.71 346.13 535.42 324.86C541.27 327.6 547.78 329.18 554.67 329.18C566.19 329.18 576.67 324.86 584.68 317.8C594.66 330.2 609.94 338.15 627.09 338.15C653.74 338.15 675.9 318.99 680.6 293.7C688.2 303.69 699.46 310.93 712.81 313.17C726.77 315.51 740.36 311.95 751.02 304.3C757.56 312.61 767.1 318.59 778.35 320.47C782.86 321.24 787.33 321.28 791.64 320.68C798.52 342.21 816.9 359.24 840.72 363.23C865.82 367.43 889.91 356 903.08 336.05C911.69 344.02 922.63 349.66 935.07 351.74C962.75 356.38 989.21 342.02 1001.14 318.16C1006.83 321.31 1013.38 323.11 1020.35 323.11H1188.27C1200.49 336.49 1218.08 344.89 1237.63 344.89C1246.26 344.89 1254.49 343.23 1262.06 340.26C1267.31 363.27 1287.89 380.45 1312.49 380.45C1330.27 380.45 1345.96 371.47 1355.27 357.82C1360.98 361.77 1367.91 364.08 1375.38 364.08C1389.53 364.08 1401.73 355.78 1407.39 343.78C1415.84 356.04 1429.97 364.08 1445.98 364.08C1471.85 364.08 1492.83 343.12 1492.83 317.24C1492.83 316.85 1492.81 316.47 1492.8 316.08C1497.81 319.06 1503.67 320.77 1509.92 320.77C1528.48 320.77 1543.54 305.73 1543.54 287.15C1543.54 268.59 1528.48 253.54 1509.92 253.54C1507.99 253.54 1506.1 253.71 1504.27 254.02C1503.44 241.55 1498.26 230.29 1490.26 221.69C1502.74 217.87 1512.78 208.48 1517.51 196.41C1523.47 199.57 1530.26 201.38 1537.48 201.38C1561.07 201.46 1580.2 182.33 1580.2 158.74ZM586.11 248.03C585.63 248.58 585.15 249.12 584.69 249.68C583.75 248.85 582.77 248.06 581.76 247.31C582.25 246.7 582.74 246.09 583.21 245.47C584.15 246.36 585.11 247.22 586.11 248.03Z" fill="white"/>
</g>
<defs>
<filter id="filter0_d_48_47" x="0" y="0" width="1584.2" height="382.45" filterUnits="userSpaceOnUse" color-interpolation-filters="sRGB">
<feFlood flood-opacity="0" result="BackgroundImageFix"/>
<feColorMatrix in="SourceAlpha" type="matrix" values="0 0 0 0 0 0 0 0 0 0 0 0 0 0 0 0 0 0 127 0" result="hardAlpha"/>
<feOffset dy="-2"/>
<feGaussianBlur stdDeviation="2"/>
<feComposite in2="hardAlpha" operator="out"/>
<feColorMatrix type="matrix" values="0 0 0 0 0.110764 0 0 0 0 0.229167 0 0 0 0 0.121124 0 0 0 0.05 0"/>
<feBlend mode="normal" in2="BackgroundImageFix" result="effect1_dropShadow_48_47"/>
<feBlend mode="normal" in="SourceGraphic" in2="effect1_dropShadow_48_47" result="shape"/>
</filter>
</defs>
</svg>
