<svg width="971" height="235" viewBox="0 0 971 235" fill="none" xmlns="http://www.w3.org/2000/svg">
<g filter="url(#filter0_d_48_492)">
<path d="M968.2 97.5317C968.2 83.0861 956.492 71.3717 942.046 71.3717C939.297 71.3717 936.651 71.8004 934.159 72.5903C932.371 55.5973 917.999 42.352 900.534 42.352C895.813 42.352 891.318 43.3257 887.234 45.077C887.283 44.3055 887.35 43.5339 887.35 42.7501C887.35 21.3481 870.002 4 848.6 4C831.326 4 816.708 15.3103 811.706 30.9193C808.809 29.8109 805.68 29.1802 802.392 29.1802C791.228 29.1802 781.724 36.1856 777.971 46.0323C774.064 43.7053 769.514 42.3459 764.634 42.3459C750.188 42.3459 738.48 54.0542 738.48 68.4997C738.48 71.9841 739.172 75.2969 740.409 78.3404C729.901 82.2043 721.75 90.9549 718.756 101.843C711.64 95.5048 702.259 91.6469 691.977 91.6469C670.839 91.6469 653.503 107.93 651.825 128.633C649.32 127.317 646.461 126.57 643.429 126.57C638.359 126.57 633.779 128.658 630.502 132.026C627.722 124.188 620.888 118.052 612.107 116.582C608.972 116.056 605.873 116.178 602.952 116.845C600.65 100.838 588.274 87.4461 571.477 84.6354C555.991 82.039 541.129 89.1546 533.107 101.549C528.3 97.8317 522.537 95.2108 516.12 94.1392C500.444 91.5122 485.398 98.8421 477.456 111.524C474.835 109.62 471.755 108.285 468.35 107.709C458.228 106.007 448.577 111.659 444.829 120.765C440.273 117.96 434.915 116.337 429.177 116.337C425.007 116.337 421.039 117.195 417.432 118.738C414.67 101.726 399.919 88.7443 382.13 88.7443C374.543 88.7443 367.507 91.1142 361.72 95.1435C353.024 79.3875 336.252 68.7141 316.987 68.7141C299.749 68.7141 284.514 77.2565 275.267 90.3364C275.249 90.3364 275.236 90.3364 275.218 90.3364C265.751 90.3364 257.288 94.6842 251.74 101.481C247.392 79.9019 228.336 63.6499 205.464 63.6499C195.862 63.6499 186.916 66.5157 179.463 71.4575C179.568 70.643 179.61 69.8102 179.61 68.9651C179.61 57.165 170.051 47.5938 158.257 47.5938C155.306 47.5938 152.483 48.1878 149.917 49.2839C148.968 33.0748 135.521 20.2275 119.079 20.2275C108.081 20.2275 98.4178 25.9837 92.9433 34.6669C87.1993 31.997 80.7879 30.509 74.0336 30.509C49.1474 30.509 28.9763 50.6801 28.9763 75.5664C28.9763 81.592 30.1642 87.3359 32.3136 92.5716C15.6452 95.4803 3 110.024 3 127.519C3 147.139 18.8968 163.036 38.5168 163.036H217.883C223.431 174.836 235.415 183.005 249.315 183.005C249.383 183.005 249.444 182.999 249.511 182.999C251.544 204.382 269.554 221.112 291.47 221.112C307.391 221.112 321.249 212.282 328.42 199.257C332.002 200.935 335.988 201.902 340.208 201.902C347.262 201.902 353.68 199.257 358.585 194.933C364.696 202.527 374.053 207.395 384.555 207.395C400.874 207.395 414.444 195.662 417.322 180.176C421.976 186.293 428.871 190.727 437.046 192.098C445.595 193.531 453.917 191.351 460.444 186.667C464.449 191.755 470.291 195.417 477.18 196.568C479.942 197.04 482.679 197.064 485.318 196.697C489.531 209.881 500.786 220.31 515.373 222.753C530.743 225.325 545.495 218.326 553.56 206.109C558.832 210.99 565.531 214.443 573.149 215.717C590.099 218.558 606.302 209.765 613.607 195.154C617.092 197.083 621.103 198.185 625.371 198.185H728.198C735.681 206.378 746.453 211.522 758.424 211.522C763.709 211.522 768.749 210.506 773.384 208.687C776.599 222.777 789.201 233.298 804.265 233.298C815.153 233.298 824.761 227.799 830.462 219.44C833.959 221.859 838.202 223.273 842.777 223.273C851.442 223.273 858.912 218.191 862.378 210.843C867.553 218.35 876.205 223.273 886.009 223.273C901.851 223.273 914.698 210.438 914.698 194.591C914.698 194.352 914.686 194.119 914.68 193.88C917.748 195.705 921.336 196.752 925.163 196.752C936.529 196.752 945.751 187.542 945.751 176.165C945.751 164.799 936.529 155.583 925.163 155.583C923.982 155.583 922.824 155.687 921.704 155.877C921.195 148.241 918.023 141.346 913.124 136.08C920.767 133.74 926.915 127.99 929.811 120.599C933.461 122.534 937.619 123.643 942.04 123.643C956.486 123.692 968.2 111.977 968.2 97.5317ZM359.46 152.209C359.166 152.546 358.872 152.877 358.591 153.22C358.015 152.711 357.415 152.228 356.796 151.768C357.096 151.395 357.397 151.021 357.684 150.642C358.26 151.187 358.848 151.713 359.46 152.209Z" fill="white"/>
</g>
<defs>
<filter id="filter0_d_48_492" x="0.550565" y="0.325847" width="970.099" height="234.197" filterUnits="userSpaceOnUse" color-interpolation-filters="sRGB">
<feFlood flood-opacity="0" result="BackgroundImageFix"/>
<feColorMatrix in="SourceAlpha" type="matrix" values="0 0 0 0 0 0 0 0 0 0 0 0 0 0 0 0 0 0 127 0" result="hardAlpha"/>
<feOffset dy="-1.22472"/>
<feGaussianBlur stdDeviation="1.22472"/>
<feComposite in2="hardAlpha" operator="out"/>
<feColorMatrix type="matrix" values="0 0 0 0 0.109804 0 0 0 0 0.227451 0 0 0 0 0.121569 0 0 0 0.05 0"/>
<feBlend mode="normal" in2="BackgroundImageFix" result="effect1_dropShadow_48_492"/>
<feBlend mode="normal" in="SourceGraphic" in2="effect1_dropShadow_48_492" result="shape"/>
</filter>
</defs>
</svg>
