<svg width="1280" height="261" viewBox="0 0 1280 261" fill="none" xmlns="http://www.w3.org/2000/svg">
<g filter="url(#filter0_d_48_432)">
<path d="M1424.84 159.66C1424.84 136.07 1405.72 116.94 1382.13 116.94C1377.64 116.94 1373.32 117.64 1369.25 118.93C1366.33 91.18 1342.86 69.55 1314.34 69.55C1306.63 69.55 1299.29 71.14 1292.62 74C1292.7 72.74 1292.81 71.48 1292.81 70.2C1292.81 35.25 1264.48 6.92004 1229.53 6.92004C1201.32 6.92004 1177.45 25.39 1169.28 50.88C1164.55 49.07 1159.44 48.04 1154.07 48.04C1135.84 48.04 1120.32 59.48 1114.19 75.56C1107.81 71.76 1100.38 69.54 1092.41 69.54C1068.82 69.54 1049.7 88.66 1049.7 112.25C1049.7 117.94 1050.83 123.35 1052.85 128.32C1035.69 134.63 1022.38 148.92 1017.49 166.7C1005.87 156.35 990.55 150.05 973.76 150.05C939.24 150.05 910.93 176.64 908.19 210.45C904.1 208.3 899.43 207.08 894.48 207.08C886.2 207.08 878.72 210.49 873.37 215.99C868.83 203.19 857.67 193.17 843.33 190.77C838.21 189.91 833.15 190.11 828.38 191.2C824.62 165.06 804.41 143.19 776.98 138.6C751.69 134.36 727.42 145.98 714.32 166.22C706.47 160.15 697.06 155.87 686.58 154.12C660.98 149.83 636.41 161.8 623.44 182.51C619.16 179.4 614.13 177.22 608.57 176.28C592.04 173.5 576.28 182.73 570.16 197.6C562.72 193.02 553.97 190.37 544.6 190.37C537.79 190.37 531.31 191.77 525.42 194.29C520.91 166.51 496.82 145.31 467.77 145.31C455.38 145.31 443.89 149.18 434.44 155.76C420.24 130.03 392.85 112.6 361.39 112.6C333.24 112.6 308.36 126.55 293.26 147.91C293.23 147.91 293.21 147.91 293.18 147.91C277.72 147.91 263.9 155.01 254.84 166.11C247.74 130.87 216.62 104.33 179.27 104.33C163.59 104.33 148.98 109.01 136.81 117.08C136.98 115.75 137.05 114.39 137.05 113.01C137.05 93.74 121.44 78.11 102.18 78.11C97.3596 78.11 92.7496 79.08 88.5596 80.87C87.0096 54.4 65.0497 33.42 38.1996 33.42C20.2397 33.42 4.45966 42.82 -4.48035 57C-13.8604 52.64 -24.3304 50.21 -35.3604 50.21C-76.0004 50.21 -108.94 83.15 -108.94 123.79C-108.94 133.63 -107 143.01 -103.49 151.56C-130.71 156.31 -151.36 180.06 -151.36 208.63C-151.36 240.67 -125.4 266.63 -93.3604 266.63H199.55C208.61 285.9 228.18 299.24 250.88 299.24C250.99 299.24 251.09 299.23 251.2 299.23C254.52 334.15 283.93 361.47 319.72 361.47C345.72 361.47 368.35 347.05 380.06 325.78C385.91 328.52 392.42 330.1 399.31 330.1C410.83 330.1 421.31 325.78 429.32 318.72C439.3 331.12 454.58 339.07 471.73 339.07C498.38 339.07 520.54 319.91 525.24 294.62C532.84 304.61 544.1 311.85 557.45 314.09C571.41 316.43 585 312.87 595.66 305.22C602.2 313.53 611.74 319.51 622.99 321.39C627.5 322.16 631.97 322.2 636.28 321.6C643.16 343.13 661.54 360.16 685.36 364.15C710.46 368.35 734.55 356.92 747.72 336.97C756.33 344.94 767.27 350.58 779.71 352.66C807.39 357.3 833.85 342.94 845.78 319.08C851.47 322.23 858.02 324.03 864.99 324.03H1032.91C1045.13 337.41 1062.72 345.81 1082.27 345.81C1090.9 345.81 1099.13 344.15 1106.7 341.18C1111.95 364.19 1132.53 381.37 1157.13 381.37C1174.91 381.37 1190.6 372.39 1199.91 358.74C1205.62 362.69 1212.55 365 1220.02 365C1234.17 365 1246.37 356.7 1252.03 344.7C1260.48 356.96 1274.61 365 1290.62 365C1316.49 365 1337.47 344.04 1337.47 318.16C1337.47 317.77 1337.45 317.39 1337.44 317C1342.45 319.98 1348.31 321.69 1354.56 321.69C1373.12 321.69 1388.18 306.65 1388.18 288.07C1388.18 269.51 1373.12 254.46 1354.56 254.46C1352.63 254.46 1350.74 254.63 1348.91 254.94C1348.08 242.47 1342.9 231.21 1334.9 222.61C1347.38 218.79 1357.42 209.4 1362.15 197.33C1368.11 200.49 1374.9 202.3 1382.12 202.3C1405.71 202.38 1424.84 183.25 1424.84 159.66ZM430.75 248.95C430.27 249.5 429.79 250.04 429.33 250.6C428.39 249.77 427.41 248.98 426.4 248.23C426.89 247.62 427.38 247.01 427.85 246.39C428.79 247.28 429.75 248.14 430.75 248.95Z" fill="white"/>
</g>
<defs>
<filter id="filter0_d_48_432" x="-155.36" y="0.920044" width="1584.2" height="382.45" filterUnits="userSpaceOnUse" color-interpolation-filters="sRGB">
<feFlood flood-opacity="0" result="BackgroundImageFix"/>
<feColorMatrix in="SourceAlpha" type="matrix" values="0 0 0 0 0 0 0 0 0 0 0 0 0 0 0 0 0 0 127 0" result="hardAlpha"/>
<feOffset dy="-2"/>
<feGaussianBlur stdDeviation="2"/>
<feComposite in2="hardAlpha" operator="out"/>
<feColorMatrix type="matrix" values="0 0 0 0 0.109804 0 0 0 0 0.227451 0 0 0 0 0.121569 0 0 0 0.05 0"/>
<feBlend mode="normal" in2="BackgroundImageFix" result="effect1_dropShadow_48_432"/>
<feBlend mode="normal" in="SourceGraphic" in2="effect1_dropShadow_48_432" result="shape"/>
</filter>
</defs>
</svg>
