<svg width="1585" height="384" viewBox="0 0 1585 384" fill="none" xmlns="http://www.w3.org/2000/svg">
<g filter="url(#filter0_d_48_108)">
<path d="M1580.84 159.66C1580.84 136.07 1561.72 116.94 1538.13 116.94C1533.64 116.94 1529.32 117.64 1525.25 118.93C1522.33 91.1799 1498.86 69.5499 1470.34 69.5499C1462.63 69.5499 1455.29 71.1399 1448.62 73.9999C1448.7 72.7399 1448.81 71.4799 1448.81 70.1999C1448.81 35.2499 1420.48 6.91992 1385.53 6.91992C1357.32 6.91992 1333.45 25.3899 1325.28 50.8799C1320.55 49.0699 1315.44 48.0399 1310.07 48.0399C1291.84 48.0399 1276.32 59.4799 1270.19 75.5599C1263.81 71.7599 1256.38 69.5399 1248.41 69.5399C1224.82 69.5399 1205.7 88.6599 1205.7 112.25C1205.7 117.94 1206.83 123.35 1208.85 128.32C1191.69 134.63 1178.38 148.92 1173.49 166.7C1161.87 156.35 1146.55 150.05 1129.76 150.05C1095.24 150.05 1066.93 176.64 1064.19 210.45C1060.1 208.3 1055.43 207.08 1050.48 207.08C1042.2 207.08 1034.72 210.49 1029.37 215.99C1024.83 203.19 1013.67 193.17 999.33 190.77C994.21 189.91 989.15 190.11 984.38 191.2C980.62 165.06 960.41 143.19 932.98 138.6C907.69 134.36 883.42 145.98 870.32 166.22C862.47 160.15 853.06 155.87 842.58 154.12C816.98 149.83 792.41 161.8 779.44 182.51C775.16 179.4 770.13 177.22 764.57 176.28C748.04 173.5 732.28 182.73 726.16 197.6C718.72 193.02 709.97 190.37 700.6 190.37C693.79 190.37 687.31 191.77 681.42 194.29C676.91 166.51 652.82 145.31 623.77 145.31C611.38 145.31 599.89 149.18 590.44 155.76C576.24 130.03 548.85 112.6 517.39 112.6C489.24 112.6 464.36 126.55 449.26 147.91C449.23 147.91 449.21 147.91 449.18 147.91C433.72 147.91 419.9 155.01 410.84 166.11C403.74 130.87 372.62 104.33 335.27 104.33C319.59 104.33 304.98 109.01 292.81 117.08C292.98 115.75 293.05 114.39 293.05 113.01C293.05 93.7399 277.44 78.1099 258.18 78.1099C253.36 78.1099 248.75 79.0799 244.56 80.8699C243.01 54.3999 221.05 33.4199 194.2 33.4199C176.24 33.4199 160.46 42.8199 151.52 56.9999C142.14 52.6399 131.67 50.2099 120.64 50.2099C79.9996 50.2099 47.0596 83.1499 47.0596 123.79C47.0596 133.63 48.9996 143.01 52.5096 151.56C25.2896 156.31 4.63965 180.06 4.63965 208.63C4.63965 240.67 30.5996 266.63 62.6396 266.63H355.55C364.61 285.9 384.18 299.24 406.88 299.24C406.99 299.24 407.09 299.23 407.2 299.23C410.52 334.15 439.93 361.47 475.72 361.47C501.72 361.47 524.35 347.05 536.06 325.78C541.91 328.52 548.42 330.1 555.31 330.1C566.83 330.1 577.31 325.78 585.32 318.72C595.3 331.12 610.58 339.07 627.73 339.07C654.38 339.07 676.54 319.91 681.24 294.62C688.84 304.61 700.1 311.85 713.45 314.09C727.41 316.43 741 312.87 751.66 305.22C758.2 313.53 767.74 319.51 778.99 321.39C783.5 322.16 787.97 322.2 792.28 321.6C799.16 343.13 817.54 360.16 841.36 364.15C866.46 368.35 890.55 356.92 903.72 336.97C912.33 344.94 923.27 350.58 935.71 352.66C963.39 357.3 989.85 342.94 1001.78 319.08C1007.47 322.23 1014.02 324.03 1020.99 324.03H1188.91C1201.13 337.41 1218.72 345.81 1238.27 345.81C1246.9 345.81 1255.13 344.15 1262.7 341.18C1267.95 364.19 1288.53 381.37 1313.13 381.37C1330.91 381.37 1346.6 372.39 1355.91 358.74C1361.62 362.69 1368.55 365 1376.02 365C1390.17 365 1402.37 356.7 1408.03 344.7C1416.48 356.96 1430.61 365 1446.62 365C1472.49 365 1493.47 344.04 1493.47 318.16C1493.47 317.77 1493.45 317.39 1493.44 317C1498.45 319.98 1504.31 321.69 1510.56 321.69C1529.12 321.69 1544.18 306.65 1544.18 288.07C1544.18 269.51 1529.12 254.46 1510.56 254.46C1508.63 254.46 1506.74 254.63 1504.91 254.94C1504.08 242.47 1498.9 231.21 1490.9 222.61C1503.38 218.79 1513.42 209.4 1518.15 197.33C1524.11 200.49 1530.9 202.3 1538.12 202.3C1561.71 202.38 1580.84 183.25 1580.84 159.66ZM586.75 248.95C586.27 249.5 585.79 250.04 585.33 250.6C584.39 249.77 583.41 248.98 582.4 248.23C582.89 247.62 583.38 247.01 583.85 246.39C584.79 247.28 585.75 248.14 586.75 248.95Z" fill="#014307" fill-opacity="0.15" shape-rendering="crispEdges"/>
</g>
<defs>
<filter id="filter0_d_48_108" x="0.639648" y="0.919922" width="1584.2" height="382.45" filterUnits="userSpaceOnUse" color-interpolation-filters="sRGB">
<feFlood flood-opacity="0" result="BackgroundImageFix"/>
<feColorMatrix in="SourceAlpha" type="matrix" values="0 0 0 0 0 0 0 0 0 0 0 0 0 0 0 0 0 0 127 0" result="hardAlpha"/>
<feOffset dy="-2"/>
<feGaussianBlur stdDeviation="2"/>
<feComposite in2="hardAlpha" operator="out"/>
<feColorMatrix type="matrix" values="0 0 0 0 0.110764 0 0 0 0 0.229167 0 0 0 0 0.121124 0 0 0 0.05 0"/>
<feBlend mode="normal" in2="BackgroundImageFix" result="effect1_dropShadow_48_108"/>
<feBlend mode="normal" in="SourceGraphic" in2="effect1_dropShadow_48_108" result="shape"/>
</filter>
</defs>
</svg>
